<?xml version="1.0" encoding="utf-8"?>
<!-- Generator: Adobe Illustrator 18.1.0, SVG Export Plug-In . SVG Version: 6.00 Build 0)  -->
<svg version="1.1" id="Layer_1" xmlns="http://www.w3.org/2000/svg" xmlns:xlink="http://www.w3.org/1999/xlink" x="0px" y="0px"
	 viewBox="0 0 509 1515" enable-background="new 0 0 509 1515" xml:space="preserve">
<rect fill="#FFFFFF" width="509" height="1515"/>
<path fill="#FFFFFF" d="M383.1,281.7c23.4,15.6,23.4,40.9,0,56.6c-23.4,15.6-61.4,15.6-84.9,0c-23.4-15.6-23.4-40.9,0-56.6
	C321.7,266.1,359.7,266.1,383.1,281.7"/>
<path fill="none" stroke="#000000" stroke-linecap="round" stroke-linejoin="round" stroke-miterlimit="10" d="M383.2,281.5
	c24,16,24,41,0,57c-23,16-61,16-85,0c-23-16-23-41,0-57C322.2,266.5,360.2,266.5,383.2,281.5"/>
<text transform="matrix(1 0 0 1 301.1928 314.8594)"><tspan x="0" y="0" font-family="'Helvetica'" font-size="18">Start</tspan><tspan x="38" y="0" font-family="'Helvetica'" font-size="18"> </tspan><tspan x="42.7" y="0" font-family="'Helvetica'" font-size="18">T</tspan><tspan x="53.1" y="0" font-family="'Helvetica'" font-size="18">urn</tspan></text>
<rect x="280.7" y="392" fill="#FFFFFF" width="120" height="80"/>
<rect x="281.2" y="392.5" fill="none" stroke="#000000" stroke-linecap="round" stroke-linejoin="round" stroke-miterlimit="10" width="120" height="80"/>
<text transform="matrix(1 0 0 1 309.6962 415.8594)" font-family="'Helvetica'" font-size="18">Choose </text>
<text transform="matrix(1 0 0 1 310.2016 436.8594)" font-family="'Helvetica'" font-size="18">random </text>
<text transform="matrix(1 0 0 1 309.705 457.8594)" font-family="'Helvetica'" font-size="18">follower</text>
<rect x="280.7" y="514" fill="#BFD7F3" width="120" height="80"/>
<rect x="281.2" y="514.5" fill="none" stroke="#000000" stroke-linecap="round" stroke-linejoin="round" stroke-miterlimit="10" width="120" height="80"/>
<text transform="matrix(1 0 0 1 286.1899 558.8594)"><tspan x="0" y="0" font-family="'Helvetica'" font-size="18">T</tspan><tspan x="10" y="0" font-family="'Helvetica'" font-size="18">weet prompt</tspan></text>
<line fill="none" stroke="#000000" stroke-width="2" stroke-linecap="round" stroke-linejoin="round" stroke-miterlimit="10" x1="340.7" y1="350" x2="340.7" y2="379"/>
<polygon points="340.7,388.7 344.3,379.1 337.1,379.1 "/>
<polygon fill="none" stroke="#000000" stroke-width="2" stroke-miterlimit="10" points="340.7,388.7 344.3,379.1 337.1,379.1 "/>
<line fill="none" stroke="#000000" stroke-width="2" stroke-linecap="round" stroke-linejoin="round" stroke-miterlimit="10" x1="340.7" y1="472" x2="340.7" y2="501"/>
<polygon points="340.7,510.7 344.3,501.1 337.1,501.1 "/>
<polygon fill="none" stroke="#000000" stroke-width="2" stroke-miterlimit="10" points="340.7,510.7 344.3,501.1 337.1,501.1 "/>
<polygon fill="#FFFFFF" points="340.7,636 400.7,676 340.7,716 280.7,676 "/>
<polygon fill="none" stroke="#000000" stroke-linecap="round" stroke-linejoin="round" stroke-miterlimit="10" points="341.2,636.5 
	401.2,676.5 341.2,716.5 281.2,676.5 "/>
<text transform="matrix(1 0 0 1 322.2473 669.5625)"><tspan x="0" y="0" font-family="'Helvetica'" font-size="18">T</tspan><tspan x="10.3" y="0" font-family="'Helvetica'" font-size="18">ime </tspan></text>
<text transform="matrix(1 0 0 1 307.3938 690.5625)" font-family="'Helvetica'" font-size="18">expired?</text>
<line fill="none" stroke="#000000" stroke-width="2" stroke-linecap="round" stroke-linejoin="round" stroke-miterlimit="10" x1="340.7" y1="594" x2="340.7" y2="623"/>
<polygon points="340.7,632.7 344.3,623.1 337.1,623.1 "/>
<polygon fill="none" stroke="#000000" stroke-width="2" stroke-miterlimit="10" points="340.7,632.7 344.3,623.1 337.1,623.1 "/>
<polygon fill="#FFFFFF" points="340.7,883.8 400.7,923.8 340.7,963.8 280.7,923.8 "/>
<polygon fill="none" stroke="#000000" stroke-linecap="round" stroke-linejoin="round" stroke-miterlimit="10" points="341.2,884.5 
	401.2,924.5 341.2,964.5 281.2,924.5 "/>
<text transform="matrix(1 0 0 1 311.907 917.3125)" font-family="'Helvetica'" font-size="18">Answer </text>
<text transform="matrix(1 0 0 1 309.4065 938.3125)" font-family="'Helvetica'" font-size="18">correct?</text>
<rect x="83.7" y="758" fill="#FFFFFF" width="120" height="80"/>
<rect x="84.2" y="758.5" fill="none" stroke="#000000" stroke-linecap="round" stroke-linejoin="round" stroke-miterlimit="10" width="120" height="80"/>
<text transform="matrix(1 0 0 1 112.062 782.5938)" font-family="'Helvetica'" font-size="17">Subtract </text>
<text transform="matrix(1 0 0 1 101.6738 802.5938)" font-family="'Helvetica'" font-size="17">points from </text>
<text transform="matrix(1 0 0 1 91.2812 822.5938)" font-family="'Helvetica'" font-size="17">follower score</text>
<polyline fill="none" stroke="#000000" stroke-width="2" stroke-linecap="round" stroke-linejoin="round" stroke-miterlimit="10" points="
	340.7,716 340.7,732 340.7,742 340.7,745 "/>
<polygon points="340.7,754.7 344.3,745.1 337.1,745.1 "/>
<polygon fill="none" stroke="#000000" stroke-width="2" stroke-miterlimit="10" points="340.7,754.7 344.3,745.1 337.1,745.1 "/>
<rect x="327.6" y="719" fill="#FFFFFF" width="26.3" height="21.9"/>
<text transform="matrix(1 0 0 1 334.3075 733.7891)" font-family="'HelveticaNeue-Bold'" font-size="10">No </text>
<polyline fill="none" stroke="#000000" stroke-width="2" stroke-linecap="round" stroke-linejoin="round" stroke-miterlimit="10" points="
	83.7,1301 67.7,1301 67.7,310 264.7,310 267.7,310 "/>
<polygon points="277.4,310 267.8,306.4 267.8,313.6 "/>
<polygon fill="none" stroke="#000000" stroke-width="2" stroke-miterlimit="10" points="277.4,310 267.8,306.4 267.8,313.6 "/>
<rect x="83.7" y="887.5" fill="#FFFFFF" width="120" height="80"/>
<rect x="84.2" y="887.5" fill="none" stroke="#000000" stroke-linecap="round" stroke-linejoin="round" stroke-miterlimit="10" width="120" height="80"/>
<text transform="matrix(1 0 0 1 91.1806 911.3594)" font-family="'Helvetica'" font-size="18">Add points to </text>
<text transform="matrix(1 0 0 1 114.7045 932.3594)" font-family="'Helvetica'" font-size="18">players </text>
<text transform="matrix(1 0 0 1 117.2094 953.3594)" font-family="'Helvetica'" font-size="18">scores</text>
<line fill="none" stroke="#000000" stroke-width="2" stroke-linecap="round" stroke-linejoin="round" stroke-miterlimit="10" x1="143.7" y1="838" x2="143.7" y2="875"/>
<polygon points="143.7,884.2 147.3,874.6 140.1,874.6 "/>
<polygon fill="none" stroke="#000000" stroke-width="2" stroke-miterlimit="10" points="143.7,884.2 147.3,874.6 140.1,874.6 "/>
<path fill="#FFFFFF" d="M186.1,1272.7c23.4,15.6,23.4,40.9,0,56.6c-23.4,15.6-61.4,15.6-84.9,0c-23.4-15.6-23.4-40.9,0-56.6
	C124.7,1257.1,162.7,1257.1,186.1,1272.7"/>
<path fill="none" stroke="#000000" stroke-linecap="round" stroke-linejoin="round" stroke-miterlimit="10" d="M186.2,1272.5
	c24,16,24,41,0,57c-23,16-61,16-85,0c-23-16-23-41,0-57C125.2,1257.5,163.2,1257.5,186.2,1272.5"/>
<text transform="matrix(1 0 0 1 107.1855 1305.8594)"><tspan x="0" y="0" font-family="'Helvetica'" font-size="18">End</tspan><tspan x="32" y="0" font-family="'Helvetica'" font-size="18"> </tspan><tspan x="36.7" y="0" font-family="'Helvetica'" font-size="18">T</tspan><tspan x="47.1" y="0" font-family="'Helvetica'" font-size="18">urn</tspan></text>
<polyline fill="none" stroke="#000000" stroke-width="2" stroke-linecap="round" stroke-linejoin="round" stroke-miterlimit="10" points="
	280.7,924 264.7,924 241.7,924 241.7,798 219.7,798 216.7,798 "/>
<polygon points="207,798 216.6,801.6 216.6,794.4 "/>
<polygon fill="none" stroke="#000000" stroke-width="2" stroke-miterlimit="10" points="207,798 216.6,801.6 216.6,794.4 "/>
<rect x="228.2" y="870.6" fill="#FFFFFF" width="26.3" height="21.9"/>
<text transform="matrix(1 0 0 1 234.5574 885.3125)" font-family="'HelveticaNeue-Bold'" font-size="10">No </text>
<polyline fill="none" stroke="#000000" stroke-width="2" stroke-linecap="round" stroke-linejoin="round" stroke-miterlimit="10" points="
	280.7,676 264.7,676 143.7,676 143.7,742 143.7,745 "/>
<polygon points="143.7,754.7 147.3,745.1 140.1,745.1 "/>
<polygon fill="none" stroke="#000000" stroke-width="2" stroke-miterlimit="10" points="143.7,754.7 147.3,745.1 140.1,745.1 "/>
<rect x="123.7" y="700.5" fill="#FFFFFF" width="39" height="21.9"/>
<text transform="matrix(1 0 0 1 134.8823 715.2266)"><tspan x="0" y="0" font-family="'HelveticaNeue-Bold'" font-size="10" letter-spacing="-1">Y</tspan><tspan x="5.6" y="0" font-family="'HelveticaNeue-Bold'" font-size="10">es </tspan></text>
<polygon fill="#FFFFFF" points="340.7,1261 400.7,1301 340.7,1341 280.7,1301 "/>
<polygon fill="none" stroke="#000000" stroke-linecap="round" stroke-linejoin="round" stroke-miterlimit="10" points="
	341.2,1261.5 401.2,1301.5 341.2,1341.5 281.2,1301.5 "/>
<text transform="matrix(1 0 0 1 322.2473 1294.5625)"><tspan x="0" y="0" font-family="'Helvetica'" font-size="18">T</tspan><tspan x="10.3" y="0" font-family="'Helvetica'" font-size="18">ime</tspan></text>
<text transform="matrix(1 0 0 1 312.3904 1315.5625)" font-family="'Helvetica'" font-size="18">bonus?</text>
<line fill="none" stroke="#000000" stroke-width="2" stroke-linecap="round" stroke-linejoin="round" stroke-miterlimit="10" x1="143.7" y1="968" x2="143.7" y2="1134"/>
<polygon points="143.7,1143.2 147.3,1133.6 140.1,1133.6 "/>
<polygon fill="none" stroke="#000000" stroke-width="2" stroke-miterlimit="10" points="143.7,1143.2 147.3,1133.6 140.1,1133.6 "/>
<polyline fill="none" stroke="#000000" stroke-width="2" stroke-linecap="round" stroke-linejoin="round" stroke-miterlimit="10" points="
	340.7,964 340.7,980 340.7,1001 340.7,1004 "/>
<polygon points="340.7,1013.7 344.3,1004.1 337.1,1004.1 "/>
<polygon fill="none" stroke="#000000" stroke-width="2" stroke-miterlimit="10" points="340.7,1013.7 344.3,1004.1 337.1,1004.1 "/>
<rect x="326" y="969.9" fill="#FFFFFF" width="29.5" height="21.9"/>
<text transform="matrix(1 0 0 1 332.6573 984.6562)"><tspan x="0" y="0" font-family="'HelveticaNeue-Bold'" font-size="10" letter-spacing="-1">Y</tspan><tspan x="5.6" y="0" font-family="'HelveticaNeue-Bold'" font-size="10">es </tspan></text>
<rect x="280.7" y="1146.5" fill="#FFFFFF" width="120" height="80"/>
<rect x="281.2" y="1146.5" fill="none" stroke="#000000" stroke-linecap="round" stroke-linejoin="round" stroke-miterlimit="10" width="120" height="80"/>
<text transform="matrix(1 0 0 1 302.687 1191.3594)" font-family="'Helvetica'" font-size="18">Add point</text>
<line fill="none" stroke="#000000" stroke-width="2" stroke-linecap="round" stroke-linejoin="round" stroke-miterlimit="10" x1="340.7" y1="1227" x2="340.7" y2="1248"/>
<polygon points="340.7,1257.7 344.3,1248.1 337.1,1248.1 "/>
<polygon fill="none" stroke="#000000" stroke-width="2" stroke-miterlimit="10" points="340.7,1257.7 344.3,1248.1 337.1,1248.1 "/>
<rect x="280.7" y="1409.2" fill="#FFFFFF" width="120" height="80"/>
<rect x="281.2" y="1409.5" fill="none" stroke="#000000" stroke-linecap="round" stroke-linejoin="round" stroke-miterlimit="10" width="120" height="80"/>
<text transform="matrix(1 0 0 1 297.6816 1443.6094)" font-family="'Helvetica'" font-size="18">Add bonus </text>
<text transform="matrix(1 0 0 1 321.2011 1464.6094)" font-family="'Helvetica'" font-size="18">point</text>
<line fill="none" stroke="#000000" stroke-width="2" stroke-linecap="round" stroke-linejoin="round" stroke-miterlimit="10" x1="340.7" y1="1341" x2="340.7" y2="1396"/>
<polygon points="340.7,1405.9 344.3,1396.3 337.1,1396.3 "/>
<polygon fill="none" stroke="#000000" stroke-width="2" stroke-miterlimit="10" points="340.7,1405.9 344.3,1396.3 337.1,1396.3 "/>
<polyline fill="none" stroke="#000000" stroke-width="2" stroke-linecap="round" stroke-linejoin="round" stroke-miterlimit="10" points="
	280.7,1301 264.7,1301 219.7,1301 216.7,1301 "/>
<polygon points="207,1301 216.6,1304.6 216.6,1297.4 "/>
<polygon fill="none" stroke="#000000" stroke-width="2" stroke-miterlimit="10" points="207,1301 216.6,1304.6 216.6,1297.4 "/>
<polyline fill="none" stroke="#000000" stroke-width="2" stroke-linecap="round" stroke-linejoin="round" stroke-miterlimit="10" points="
	280.7,1449 264.7,1449 241.7,1449 241.7,1301 219.7,1301 216.7,1301 "/>
<polygon points="207,1301 216.6,1304.6 216.6,1297.4 "/>
<polygon fill="none" stroke="#000000" stroke-width="2" stroke-miterlimit="10" points="207,1301 216.6,1304.6 216.6,1297.4 "/>
<rect x="326" y="1352" fill="#FFFFFF" width="29.5" height="21.9"/>
<text transform="matrix(1 0 0 1 332.6573 1366.7266)"><tspan x="0" y="0" font-family="'HelveticaNeue-Bold'" font-size="10" letter-spacing="-1">Y</tspan><tspan x="5.6" y="0" font-family="'HelveticaNeue-Bold'" font-size="10">es </tspan></text>
<rect x="249.2" y="1290" fill="#FFFFFF" width="26.3" height="21.9"/>
<text transform="matrix(1 0 0 1 255.9345 1304.7891)" font-family="'HelveticaNeue-Bold'" font-size="10">No </text>
<rect x="83.7" y="1146.5" fill="#BFD7F3" width="120" height="80"/>
<rect x="84.2" y="1146.5" fill="none" stroke="#000000" stroke-linecap="round" stroke-linejoin="round" stroke-miterlimit="10" width="120" height="80"/>
<text transform="matrix(1 0 0 1 92.6879 1180.8594)"><tspan x="0" y="0" font-family="'Helvetica'" font-size="18">T</tspan><tspan x="10" y="0" font-family="'Helvetica'" font-size="18">weet failure </tspan></text>
<text transform="matrix(1 0 0 1 107.1987 1201.8594)" font-family="'Helvetica'" font-size="18">message</text>
<line fill="none" stroke="#000000" stroke-width="2" stroke-linecap="round" stroke-linejoin="round" stroke-miterlimit="10" x1="143.7" y1="1227" x2="143.7" y2="1248"/>
<polygon points="143.7,1257.7 147.3,1248.1 140.1,1248.1 "/>
<polygon fill="none" stroke="#000000" stroke-width="2" stroke-miterlimit="10" points="143.7,1257.7 147.3,1248.1 140.1,1248.1 "/>
<path fill="#FFFFFF" d="M298.7,26h84c9.9,0,18,17.9,18,40s-8.1,40-18,40h-84c-9.9,0-18-17.9-18-40S288.8,26,298.7,26"/>
<path fill="none" stroke="#000000" stroke-linecap="round" stroke-linejoin="round" stroke-miterlimit="10" d="M299.2,26.5h84
	c10,0,18,18,18,40s-8,40-18,40h-84c-10,0-18-18-18-40S289.2,26.5,299.2,26.5"/>
<text transform="matrix(1 0 0 1 321.7109 60.3594)" font-family="'Helvetica'" font-size="18">Start </text>
<text transform="matrix(1 0 0 1 314.1962 81.3594)" font-family="'Helvetica'" font-size="18">Round</text>
<rect x="280.7" y="148" fill="#FFFFFF" width="120" height="80"/>
<rect x="281.2" y="148.5" fill="none" stroke="#000000" stroke-linecap="round" stroke-linejoin="round" stroke-miterlimit="10" width="120" height="80"/>
<text transform="matrix(1 0 0 1 308.2021 171.8594)" font-family="'Helvetica'" font-size="18">Initialize </text>
<text transform="matrix(1 0 0 1 308.1977 192.8594)" font-family="'Helvetica'" font-size="18">points &amp; </text>
<text transform="matrix(1 0 0 1 298.2045 213.8594)" font-family="'Helvetica'" font-size="18">players list</text>
<line fill="none" stroke="#000000" stroke-width="2" stroke-linecap="round" stroke-linejoin="round" stroke-miterlimit="10" x1="340.7" y1="228" x2="340.7" y2="257"/>
<polygon points="340.7,266.7 344.3,257.1 337.1,257.1 "/>
<polygon fill="none" stroke="#000000" stroke-width="2" stroke-miterlimit="10" points="340.7,266.7 344.3,257.1 337.1,257.1 "/>
<line fill="none" stroke="#000000" stroke-width="2" stroke-linecap="round" stroke-linejoin="round" stroke-miterlimit="10" x1="340.7" y1="106" x2="340.7" y2="135"/>
<polygon points="340.7,144.7 344.3,135.1 337.1,135.1 "/>
<polygon fill="none" stroke="#000000" stroke-width="2" stroke-miterlimit="10" points="340.7,144.7 344.3,135.1 337.1,135.1 "/>
<rect x="280.7" y="1017" fill="#FFFFFF" width="120" height="80"/>
<rect x="281.2" y="1017.5" fill="none" stroke="#000000" stroke-linecap="round" stroke-linejoin="round" stroke-miterlimit="10" width="120" height="80"/>
<text transform="matrix(1 0 0 1 291.1909 1051.3594)" font-family="'Helvetica'" font-size="18">Add follower </text>
<text transform="matrix(1 0 0 1 288.1982 1072.3594)" font-family="'Helvetica'" font-size="18">to players list</text>
<line fill="none" stroke="#000000" stroke-width="2" stroke-linecap="round" stroke-linejoin="round" stroke-miterlimit="10" x1="340.7" y1="1097" x2="340.7" y2="1134"/>
<polygon points="340.7,1143.2 344.3,1133.6 337.1,1133.6 "/>
<polygon fill="none" stroke="#000000" stroke-width="2" stroke-miterlimit="10" points="340.7,1143.2 344.3,1133.6 337.1,1133.6 "/>
<rect x="83.7" y="1017" fill="#FFFFFF" width="120" height="80"/>
<rect x="84.2" y="1017.5" fill="none" stroke="#000000" stroke-linecap="round" stroke-linejoin="round" stroke-miterlimit="10" width="120" height="80"/>
<text transform="matrix(1 0 0 1 100.1982 1040.8594)" font-family="'Helvetica'" font-size="18">Reinitialize </text>
<text transform="matrix(1 0 0 1 111.1977 1061.8594)" font-family="'Helvetica'" font-size="18">points &amp; </text>
<text transform="matrix(1 0 0 1 101.2045 1082.8594)" font-family="'Helvetica'" font-size="18">players list</text>
<polygon fill="#FFFFFF" points="340.7,758 400.7,798 340.7,838 280.7,798 "/>
<polygon fill="none" stroke="#000000" stroke-linecap="round" stroke-linejoin="round" stroke-miterlimit="10" points="341.2,758.5 
	401.2,798.5 341.2,838.5 281.2,798.5 "/>
<text transform="matrix(1 0 0 1 311.907 791.5625)" font-family="'Helvetica'" font-size="18">Answer </text>
<text transform="matrix(1 0 0 1 302.8938 812.5625)" font-family="'Helvetica'" font-size="18">received?</text>
<polyline fill="none" stroke="#000000" stroke-width="2" stroke-linecap="round" stroke-linejoin="round" stroke-miterlimit="10" points="
	400.7,798 416.7,798 416.7,676 413.7,676 "/>
<polygon points="404,676 413.6,679.6 413.6,672.4 "/>
<polygon fill="none" stroke="#000000" stroke-width="2" stroke-miterlimit="10" points="404,676 413.6,679.6 413.6,672.4 "/>
<line fill="none" stroke="#000000" stroke-width="2" stroke-linecap="round" stroke-linejoin="round" stroke-miterlimit="10" x1="340.7" y1="838" x2="340.7" y2="871"/>
<polygon points="340.7,880.5 344.3,870.8 337.1,870.8 "/>
<polygon fill="none" stroke="#000000" stroke-width="2" stroke-miterlimit="10" points="340.7,880.5 344.3,870.8 337.1,870.8 "/>
<rect x="326" y="844.6" fill="#FFFFFF" width="29.5" height="21.9"/>
<text transform="matrix(1 0 0 1 332.6573 859.3438)"><tspan x="0" y="0" font-family="'HelveticaNeue-Bold'" font-size="10" letter-spacing="-1">Y</tspan><tspan x="5.6" y="0" font-family="'HelveticaNeue-Bold'" font-size="10">es </tspan></text>
<rect x="398.7" y="747.6" fill="#FFFFFF" width="39" height="21.9"/>
<text transform="matrix(1 0 0 1 411.4575 762.3828)" font-family="'HelveticaNeue-Bold'" font-size="10">No </text>
</svg>
